<?xml version="1.0" encoding="iso-8859-1"?>

<!DOCTYPE svg PUBLIC "-//W3C//DTD SVG 1.1//EN" "http://www.w3.org/Graphics/SVG/1.1/DTD/svg11.dtd">
<!-- Uploaded to: SVG Repo, www.svgrepo.com, Generator: SVG Repo Mixer Tools -->
<svg height="800px" width="800px" version="1.1" id="_x34_" xmlns="http://www.w3.org/2000/svg" xmlns:xlink="http://www.w3.org/1999/xlink" 
	 viewBox="0 0 512 512"  xml:space="preserve">
<g>
	<g>
		<path style="fill:none;" d="M270.22,123.632c-3.424-32.984-31.3-58.704-65.19-58.704c-33.891,0-61.767,25.72-65.19,58.705
			c19.229-11.008,41.445-17.391,65.19-17.391C228.775,106.242,250.99,112.624,270.22,123.632z"/>
		<path style="fill:none;" d="M409.02,216.804c0.7,6.893,1.059,13.887,1.059,20.965c0,24.773-4.393,48.519-12.442,70.502
			c-2.3,6.281-4.898,12.419-7.778,18.395c-2.072,4.299-4.339,8.484-6.696,12.611h17.663v0.125c44.818,0,81.279-36.461,81.279-81.279
			c0-44.802-36.434-81.251-81.23-81.277c1.99,6.404,3.676,12.942,5.038,19.599C407.278,203.119,408.32,209.91,409.02,216.804z"/>
		<path style="fill:none;" d="M319.166,302.959c32.984-3.423,58.705-31.301,58.705-65.19c0-33.89-25.721-61.767-58.705-65.191
			c11.008,19.23,17.391,41.445,17.391,65.191C336.557,261.514,330.174,283.729,319.166,302.959z"/>
		<path style="fill:none;" d="M208.598,369.116c-1.197,0.032-2.364,0.18-3.568,0.18c-23.745,0-45.961-6.382-65.19-17.391
			c3.423,32.985,31.299,58.705,65.19,58.705c27.679,0,51.3-17.18,60.912-41.438h-57.344V369.116z"/>
		<path style="fill:none;" d="M90.894,172.578c-32.984,3.423-58.706,31.301-58.706,65.191c0,33.89,25.721,61.767,58.706,65.19
			c-11.008-19.23-17.391-41.445-17.391-65.19C73.503,214.023,79.885,191.808,90.894,172.578z"/>
		<path style="fill:#69534D;" d="M152.087,274.425c-7.221-10.409-11.48-23.028-11.48-36.656c0-13.629,4.258-26.248,11.479-36.656
			c-11.781-17.432-31.726-28.893-54.349-28.893c-2.312,0-4.594,0.126-6.844,0.359c-11.008,19.23-17.391,41.445-17.391,65.191
			c0,23.745,6.383,45.961,17.391,65.19c2.25,0.233,4.532,0.359,6.844,0.359C120.361,303.319,140.307,291.858,152.087,274.425z"/>
		<path style="fill:#69534D;" d="M257.973,201.111c7.221,10.41,11.48,23.029,11.48,36.657c0,13.629-4.259,26.248-11.48,36.658
			c11.78,17.431,31.727,28.892,54.35,28.892c2.312,0,4.594-0.126,6.844-0.359c11.008-19.23,17.391-41.445,17.391-65.19
			c0-23.745-6.383-45.961-17.391-65.191c-2.25-0.233-4.532-0.359-6.844-0.359C289.699,172.219,269.753,183.679,257.973,201.111z"/>
		<path style="fill:#69534D;" d="M168.373,184.827c10.409-7.222,23.028-11.48,36.657-11.48c13.628,0,26.248,4.258,36.657,11.479
			c17.432-11.781,28.893-31.726,28.893-54.35c0-2.312-0.126-4.594-0.36-6.845c-19.229-11.007-41.445-17.39-65.19-17.39
			c-23.745,0-45.961,6.382-65.19,17.391c-0.234,2.251-0.36,4.532-0.36,6.844C139.48,153.1,150.941,173.046,168.373,184.827z"/>
		<path style="fill:#C26546;" d="M152.087,201.112c-7.221,10.409-11.479,23.028-11.479,36.656c0,13.629,4.258,26.248,11.48,36.656
			c7.071-10.463,11.2-23.077,11.2-36.656C163.287,224.19,159.158,211.575,152.087,201.112z"/>
		<path style="fill:#C26546;" d="M168.372,290.711c10.41,7.222,23.029,11.48,36.657,11.48c13.628,0,26.248-4.258,36.657-11.479
			c-10.463-7.071-23.078-11.201-36.657-11.201C191.451,279.51,178.836,283.64,168.372,290.711z"/>
		<path style="fill:#C26546;" d="M241.687,184.826c-10.409-7.221-23.029-11.479-36.657-11.479c-13.628,0-26.248,4.258-36.657,11.48
			c10.463,7.07,23.078,11.2,36.657,11.2C218.609,196.027,231.223,191.897,241.687,184.826z"/>
		<path style="fill:#C26546;" d="M257.972,274.427c7.221-10.41,11.48-23.029,11.48-36.658c0-13.629-4.258-26.248-11.48-36.657
			c-7.071,10.464-11.201,23.078-11.201,36.657C246.771,251.348,250.901,263.963,257.972,274.427z"/>
		<path style="fill:#C26546;" d="M205.03,220.592c-9.487,0-17.177,7.69-17.177,17.177c0,4.744,1.923,9.038,5.031,12.146l0,0
			c0.777,0.777,1.628,1.48,2.542,2.097c2.742,1.852,6.046,2.934,9.604,2.934c2.372,0,4.631-0.481,6.686-1.35
			c2.055-0.869,3.906-2.127,5.46-3.681c0.777-0.778,1.48-1.629,2.098-2.543c1.235-1.828,2.127-3.905,2.584-6.142
			c0.229-1.118,0.349-2.276,0.349-3.462c0-1.186-0.12-2.343-0.349-3.462c-0.458-2.237-1.349-4.314-2.584-6.142
			C216.186,223.596,210.959,220.592,205.03,220.592z"/>
		<path style="fill:#E9E4D6;" d="M153.785,436.361c-13.103-3.371-25.7-8.005-37.652-13.764
			C128.085,428.356,140.682,432.99,153.785,436.361z"/>
		<path style="fill:#E9E4D6;" d="M372.684,119.783c2.683,3.805,5.285,7.671,7.709,11.661
			C377.968,127.453,375.367,123.588,372.684,119.783z"/>
		<path style="fill:#E9E4D6;" d="M116.133,422.596c-8.964-4.319-17.566-9.271-25.748-14.799
			C98.566,413.325,107.168,418.277,116.133,422.596z"/>
		<path style="fill:#E9E4D6;" d="M405.912,196.444c-1.362-6.657-3.048-13.195-5.038-19.599l0,0
			C402.864,183.25,404.55,189.789,405.912,196.444z"/>
		<path style="fill:#E9E4D6;" d="M90.385,407.798c-10.909-7.37-21.07-15.762-30.346-25.039
			C69.315,392.036,79.477,400.428,90.385,407.798z"/>
		<path style="fill:#E9E4D6;" d="M405.912,196.444c1.365,6.674,2.408,13.467,3.108,20.359
			C408.32,209.91,407.278,203.119,405.912,196.444z"/>
		<path style="fill:#E9E4D6;" d="M152.087,274.425c-11.781,17.433-31.727,28.893-54.349,28.893c-2.312,0-4.594-0.126-6.844-0.359
			c5.83,10.183,12.891,19.572,21.132,27.813l47.451-47.451C156.749,280.594,154.292,277.604,152.087,274.425z"/>
		<path style="fill:#E9E4D6;" d="M219.273,228.165c1.235,1.828,2.127,3.905,2.584,6.142
			C221.4,232.07,220.508,229.993,219.273,228.165z"/>
		<path style="opacity:0.1;" d="M397.636,308.271c-2.3,6.281-4.898,12.419-7.778,18.395
			C392.738,320.69,395.336,314.552,397.636,308.271z"/>
		<path style="opacity:0.1;" d="M350.021,92.778c8.313,8.312,15.87,17.369,22.663,27.005
			C365.891,110.149,358.334,101.091,350.021,92.778z"/>
		<path style="opacity:0.1;" d="M350.021,382.759c4.335-4.335,8.456-8.88,12.391-13.587h-0.001
			C358.477,373.879,354.356,378.424,350.021,382.759z"/>
		<path style="opacity:0.1;" d="M293.927,422.596c-11.952,5.759-24.549,10.394-37.652,13.764
			C269.378,432.99,281.974,428.356,293.927,422.596z"/>
		<path style="fill:#C26546;" d="M192.884,249.915c0.777,0.777,1.628,1.48,2.542,2.097
			C194.512,251.396,193.661,250.692,192.884,249.915L192.884,249.915z"/>
		<path style="opacity:0.1;" d="M192.884,249.915c0.777,0.777,1.628,1.48,2.542,2.097
			C194.512,251.396,193.661,250.692,192.884,249.915L192.884,249.915z"/>
		<path style="fill:#C26546;" d="M221.858,241.23c-0.458,2.237-1.349,4.314-2.584,6.142
			C220.508,245.545,221.4,243.467,221.858,241.23z"/>
		<path style="opacity:0.1;" d="M221.858,241.23c-0.458,2.237-1.349,4.314-2.584,6.142
			C220.508,245.545,221.4,243.467,221.858,241.23z"/>
		<path style="fill:#C26546;" d="M217.176,249.915c-1.554,1.553-3.405,2.811-5.46,3.681
			C213.771,252.727,215.622,251.469,217.176,249.915z"/>
		<path style="opacity:0.1;" d="M217.176,249.915c-1.554,1.553-3.405,2.811-5.46,3.681
			C213.771,252.727,215.622,251.469,217.176,249.915z"/>
		<path style="fill:#69534D;" d="M356.798,0v29.823c-21.696,0-40.632,11.959-50.752,29.516c-8.663-4.907-17.71-9.199-27.139-12.802
			c14.259-26.45,41.475-44.696,73.061-46.383C353.578,0.077,355.188,0,356.798,0z"/>
		<path style="fill:#69534D;" d="M406.832,147.116v-0.168h-17.96c0.32,0.648,0.672,1.275,0.986,1.924
			c2.88,5.976,5.478,12.114,7.778,18.395c1.15,3.141,2.225,6.317,3.224,9.527c0.006,0.018,0.009,0.036,0.014,0.052
			c44.796,0.026,81.23,36.475,81.23,81.277c0,44.818-36.461,81.279-81.279,81.279v-0.125h-17.663
			c-2.556,4.476-5.227,8.879-8.103,13.137c-3.926,5.812-8.162,11.393-12.647,16.759h38.414v0.124
			c61.302,0,111.174-49.871,111.174-111.173C512,198.835,465.352,150.247,406.832,147.116z"/>
		<path style="fill:#69534D;" d="M208.598,369.116v0.056h57.344c2.157-5.443,3.65-11.222,4.278-17.266
			C251.966,362.356,230.993,368.514,208.598,369.116z"/>
		<path style="fill:#69534D;" d="M270.288,339.277c-1.771-20.211-12.673-37.802-28.601-48.565
			c-10.409,7.221-23.029,11.479-36.657,11.479c-13.628,0-26.248-4.258-36.657-11.48c-17.432,11.78-28.893,31.727-28.893,54.35
			c0,2.312,0.126,4.593,0.36,6.844c19.229,11.008,41.445,17.391,65.19,17.391c1.204,0,2.371-0.148,3.568-0.18
			c22.395-0.603,43.368-6.761,61.622-17.21c0.233-2.251,0.36-4.533,0.36-6.845C270.58,343.108,270.455,341.186,270.288,339.277z"/>
		<path style="fill:#69534D;" d="M400.874,176.846c-0.005-0.017-0.009-0.035-0.014-0.052
			C400.865,176.811,400.869,176.829,400.874,176.846L400.874,176.846z"/>
		<path style="fill:#E9E4D6;" d="M293.146,149.653l4.888-4.888c-6.147-6.147-12.922-11.657-20.183-16.496
			C281.857,136.164,287.06,143.335,293.146,149.653z"/>
		<path style="fill:#69534D;" d="M389.858,148.871c2.88,5.976,5.478,12.114,7.778,18.395
			C395.336,160.985,392.738,154.848,389.858,148.871z"/>
		<path style="fill:#69534D;" d="M362.411,369.172L362.411,369.172c4.486-5.366,8.722-10.948,12.648-16.759
			C371.133,358.225,366.896,363.806,362.411,369.172z"/>
		<path style="fill:#E9E4D6;" d="M409.774,227.235c-0.154-3.527-0.383-6.977-0.767-10.426c-0.383-3.45-0.843-6.9-1.303-10.274
			c-0.537-3.449-1.073-6.822-1.763-10.119c-1.38-6.593-3.067-13.186-5.06-19.549v-0.077c-0.997-3.22-2.07-6.364-3.22-9.506
			c-2.3-6.287-4.907-12.421-7.82-18.401c-0.307-0.689-0.613-1.303-0.997-1.917c-1.303-2.605-2.683-5.29-4.063-7.819
			c-1.38-2.606-2.837-5.214-4.37-7.666c-2.453-4.063-5.06-7.897-7.743-11.73c-1.686-2.376-3.45-4.753-5.213-7.054
			c-5.06-6.592-10.503-12.879-16.406-18.859c-0.306-0.384-0.613-0.69-0.997-1.073c-13.033-13.033-27.906-24.226-44.006-33.426
			c-8.663-4.907-17.71-9.199-27.139-12.802c-22.923-8.893-47.839-13.8-73.905-13.8C91.768,32.736,0,124.504,0,237.738
			c0,47.916,16.406,92.075,44.006,126.958c4.907,6.363,10.35,12.419,16.023,18.092c0.383,0.384,0.69,0.691,1.073,0.998
			c2.224,2.223,4.6,4.37,6.9,6.44c3.144,2.837,6.363,5.596,9.66,8.126c0.077,0.154,0.153,0.23,0.23,0.23
			c1.533,1.304,3.144,2.531,4.754,3.68c2.53,1.917,5.06,3.757,7.667,5.52c8.203,5.521,16.789,10.504,25.759,14.797
			c11.96,5.75,24.533,10.426,37.642,13.799c16.406,4.217,33.579,6.441,51.289,6.441s34.882-2.224,51.212-6.441
			c13.11-3.373,25.683-8.049,37.643-13.799c20.929-10.043,39.866-23.613,56.119-39.79h0.076c2.147-2.146,4.293-4.446,6.287-6.669
			c2.07-2.3,4.064-4.601,6.057-6.977c4.523-5.367,8.74-10.887,12.65-16.713c2.913-4.293,5.597-8.662,8.126-13.186
			c2.377-4.064,4.6-8.28,6.67-12.573c2.913-5.979,5.52-12.113,7.82-18.4c8.05-22.002,12.42-45.692,12.42-70.531
			C410.08,234.212,410.004,230.685,409.774,227.235z M219.261,228.155c1.227,1.84,2.147,3.91,2.607,6.133
			c0.23,1.149,0.307,2.299,0.307,3.45c0,1.226-0.077,2.377-0.307,3.526c-0.46,2.223-1.38,4.294-2.607,6.133
			c-0.613,0.92-1.303,1.763-2.07,2.53c-1.533,1.534-3.45,2.837-5.443,3.681c-2.07,0.842-4.37,1.303-6.747,1.303
			c-3.526,0-6.823-1.073-9.583-2.913c-0.46-0.306-0.92-0.69-1.38-1.15c-0.383-0.23-0.766-0.536-1.15-0.92
			c-3.143-3.144-5.06-7.436-5.06-12.189c0-9.43,7.743-17.173,17.173-17.173c5.29,0,9.966,2.377,13.187,6.134
			C218.572,227.158,218.878,227.618,219.261,228.155z M297.996,144.743l-4.83,4.907c-6.133-6.287-11.346-13.493-15.333-21.39
			C285.117,133.09,291.863,138.611,297.996,144.743z M139.837,123.66c3.45-33.042,31.279-58.726,65.165-58.726
			c33.886,0,61.792,25.684,65.242,58.726c0.23,2.223,0.307,4.523,0.307,6.823c0,22.616-11.423,42.549-28.826,54.355
			c-10.503,7.053-23.153,11.194-36.723,11.194s-26.143-4.14-36.646-11.194c-17.403-11.806-28.903-31.739-28.903-54.355
			C139.453,128.184,139.607,125.883,139.837,123.66z M32.199,237.738c0-33.885,25.683-61.716,58.725-65.165
			c2.224-0.23,4.523-0.384,6.823-0.384c22.616,0,42.549,11.5,54.356,28.903c7.053,10.503,11.193,23.076,11.193,36.646
			c0,13.646-4.14,26.219-11.193,36.723c2.223,3.143,4.676,6.133,7.36,8.892l-47.456,47.456
			c-8.203-8.279-15.256-17.633-21.083-27.829C57.882,299.53,32.199,271.623,32.199,237.738z M270.244,351.892
			c-0.613,6.056-2.147,11.806-4.293,17.25c-0.613,1.533-1.226,2.99-1.993,4.446c-3.527,7.283-8.356,13.877-14.183,19.32
			c-11.73,10.963-27.446,17.71-44.772,17.71c-29.669,0-54.739-19.703-62.788-46.766c-1.15-3.833-1.917-7.82-2.377-11.883v-0.077
			c-0.23-2.224-0.383-4.523-0.383-6.823c0-22.616,11.5-42.549,28.903-54.356c10.503-7.052,23.076-11.193,36.646-11.193
			s26.219,4.14,36.723,11.193c15.869,10.734,26.756,28.367,28.596,48.53c0.154,1.917,0.23,3.833,0.23,5.827
			C270.55,347.369,270.474,349.668,270.244,351.892z M364.618,277.22c-10.657,14.106-26.91,23.843-45.462,25.759
			c-2.223,0.23-4.523,0.307-6.823,0.307c-22.616,0-42.549-11.423-54.355-28.826c-7.054-10.504-11.193-23.076-11.193-36.723
			c0-13.57,4.14-26.143,11.193-36.646c11.806-17.403,31.739-28.903,54.355-28.903c2.3,0,4.6,0.154,6.823,0.384
			c18.553,1.917,34.806,11.577,45.462,25.683c8.357,11.04,13.263,24.687,13.263,39.483S372.975,266.18,364.618,277.22z"/>
	</g>
	<path style="opacity:0.1;fill:#040000;" d="M496.865,202.242c-4.37-7.513-9.583-14.413-15.563-20.623
		c-1.227-1.226-2.377-2.453-3.68-3.68c-18.553-17.863-43.392-29.362-70.762-30.819h-0.077v-0.154h-17.94
		c-1.303-2.605-2.683-5.29-4.063-7.819c-1.457-2.606-2.913-5.214-4.447-7.666c-2.377-4.063-4.983-7.897-7.667-11.73
		c-1.686-2.376-3.45-4.753-5.213-7.054c-5.136-6.592-10.58-12.802-16.406-18.859l-132.86,132.861l-24.15,24.149l-131.94,131.94
		l-0.997,0.998c2.224,2.223,4.6,4.37,6.9,6.44c3.144,2.837,6.363,5.596,9.66,8.126c0.077,0.154,0.153,0.23,0.23,0.23
		c1.533,1.304,3.144,2.531,4.754,3.68c2.53,1.917,5.06,3.757,7.667,5.52c8.203,5.521,16.789,10.504,25.759,14.797
		c11.96,5.75,24.533,10.426,37.642,13.799c16.406,4.217,33.579,6.441,51.289,6.441s34.882-2.224,51.212-6.441
		c13.11-3.373,25.683-8.049,37.643-13.799c20.929-10.043,39.866-23.613,56.119-39.79c2.223-2.146,4.293-4.446,6.363-6.669
		c2.07-2.3,4.064-4.601,6.057-6.977h38.409v0.152c32.506,0,61.868-14.028,82.261-36.416c2.377-2.682,4.676-5.443,6.823-8.279
		c8.51-11.424,14.873-24.533,18.553-38.716c0.92-3.526,1.686-7.13,2.223-10.81c0.613-3.68,0.997-7.436,1.15-11.194
		c0.077-1.917,0.154-3.833,0.154-5.75C511.968,237.815,506.448,218.648,496.865,202.242z M249.774,392.908
		c-11.73,10.963-27.446,17.71-44.772,17.71c-29.669,0-54.739-19.703-62.788-46.766c-1.227-3.833-1.993-7.82-2.453-11.959h0.077
		v0.077c2.377,1.304,4.83,2.606,7.283,3.833c17.479,8.586,37.106,13.492,57.882,13.492c1.227,0,2.377-0.152,3.527-0.152h57.345
		c-0.613,1.533-1.226,2.99-1.917,4.446C260.43,380.871,255.601,387.388,249.774,392.908z M319.156,302.98
		c2.76-4.83,5.213-9.813,7.36-14.949c2.146-5.214,3.909-10.504,5.443-15.947c2.913-10.963,4.523-22.462,4.523-34.346
		c0-11.807-1.61-23.307-4.523-34.269c-1.533-5.443-3.297-10.733-5.443-15.947c-2.147-5.136-4.6-10.119-7.36-14.949
		c18.553,1.917,34.806,11.577,45.462,25.683c8.28,11.04,13.187,24.687,13.187,39.483s-4.907,28.442-13.187,39.483
		C353.962,291.327,337.709,301.063,319.156,302.98z M400.804,339.396v-0.154h-17.71c2.377-4.064,4.677-8.28,6.747-12.573
		c2.837-5.979,5.443-12.113,7.743-18.4c8.05-22.002,12.42-45.692,12.42-70.531c0-3.526-0.077-7.053-0.23-10.503
		c-0.154-3.527-0.383-6.977-0.767-10.426c-0.383-3.45-0.843-6.9-1.303-10.274c-0.537-3.449-1.15-6.822-1.84-10.119
		c-1.38-6.593-3.067-13.186-5.06-19.549h0.076c22.387,0,42.702,9.123,57.346,23.842c3.68,3.681,6.976,7.743,9.966,12.037
		c1.457,2.147,2.837,4.37,4.063,6.67c0.613,1.15,1.227,2.376,1.764,3.527c1.15,2.376,2.223,4.829,3.143,7.283
		c3.144,8.739,4.907,18.093,4.907,27.905C482.069,302.903,445.576,339.396,400.804,339.396z"/>
</g>
</svg>